{"title":"Strictly Sexual (2008) DVDrip WIDESCREEN (Johann Urb)","uid":5689297,"size":803250176,"categoryP":"video","categoryS":"movies","magnet":"?xt=urn:btih:d3e760c9d221a11b63475d23fcf537bb1342bc51&amp;dn=Strictly+Sexual+%282008%29+DVDrip+WIDESCREEN+%28Johann+Urb%29&amp;tr=udp%3A%2F%2Ftracker.openbittorrent.com%3A80&amp;tr=udp%3A%2F%2Fopen.demonii.com%3A1337&amp;tr=udp%3A%2F%2Ftracker.coppersurfer.tk%3A6969&amp;tr=udp%3A%2F%2Fexodus.desync.com%3A6969","seeders":12,"leechers":1,"uploader":"Kuthumi","files":1,"time":1279007151,"description":" &lt;a href=&quot;http://www.imdb.com/title/tt0494277/&quot; rel=&quot;nofollow&quot; target=&quot;_NEW&quot;&gt;http://www.imdb.com/title/tt0494277/&lt;/a&gt;\n\n\nThis is a widescreen version. I just discovered that all the other rips available here are fullscreen, due to a fullscreen DVD release in the U.S.\n\nIt is not my own rip, but the quality is good. Runs well in both my standalone players.\n\nFormat/Info                      : Audio Video Interleave\nFile size                        : 766 MiB\nDuration                         : 1h 40mn\nOverall bit rate                 : 1 070 Kbps\nWriting application              : VirtualDubMod 1.5.10.2 (build 2540/release)\nWriting library                  : VirtualDubMod build 2540/release\n\nVideo\nID                               : 0\nFormat                           : MPEG-4 Visual\nFormat profile                   : Advanced Simple@L5\nFormat settings, BVOP            : Yes\nFormat settings, QPel            : No\nFormat settings, GMC             : No warppoints\nFormat settings, Matrix          : Default (H.263)\nMuxing mode                      : Packed bitstream\nCodec ID                         : XVID\nCodec ID/Hint                    : XviD\nDuration                         : 1h 40mn\nBit rate                         : 957 Kbps\nWidth                            : 640 pixels\nHeight                           : 336 pixels\nDisplay aspect ratio             : 1.905\nFrame rate                       : 23.976 fps\nColor space                      : YUV\nChroma subsampling               : 4:2:0\nBit depth                        : 8 bits\nScan type                        : Progressive\nBits/(Pixel*Frame)               : 0.186\nStream size                      : 685 MiB (89%)\nWriting library                  : XviD 1.2.0.dev47 (UTC 2006-11-01)\n\nAudio\nID                               : 1\nFormat                           : MPEG Audio\nFormat version                   : Version 1\nFormat profile                   : Layer 3\nMode                             : Joint stereo\nMode extension                   : MS Stereo\nCodec ID                         : 55\nCodec ID/Hint                    : MP3\nDuration                         : 1h 40mn\nBit rate mode                    : Variable\nBit rate                         : 100 Kbps\nNominal bit rate                 : 112 Kbps\nChannel(s)                       : 2 channels\nSampling rate                    : 48.0 KHz\nStream size                      : 71.9 MiB (9%)\nAlignment                        : Aligned on interleaves\nInterleave, duration             : 24 ms (0.58 video frame)\nInterleave, preload duration     : 527 ms\nWriting library                  : LAME3.98r\nEncoding settings                : -m j -V 4 -q 2 -lowpass 16 --abr 112","torrent":{"xt":"urn:btih:d3e760c9d221a11b63475d23fcf537bb1342bc51","amp;dn":"Strictly+Sexual+%282008%29+DVDrip+WIDESCREEN+%28Johann+Urb%29","amp;tr":["udp%3A%2F%2Ftracker.openbittorrent.com%3A80","udp%3A%2F%2Fopen.demonii.com%3A1337","udp%3A%2F%2Ftracker.coppersurfer.tk%3A6969","udp%3A%2F%2Fexodus.desync.com%3A6969"],"infoHash":"d3e760c9d221a11b63475d23fcf537bb1342bc51","infoHashBuffer":{"type":"Buffer","data":[211,231,96,201,210,33,161,27,99,71,93,35,252,245,55,187,19,66,188,81]},"announce":[],"urlList":[]}}